<svg width="85" height="38" viewBox="0 0 85 38" fill="none" xmlns="http://www.w3.org/2000/svg">
<g clip-path="url(#clip0_538_4361)">
<path d="M67.178 0.983643H17.8229C7.97922 0.983643 0 9.02119 0 19.0004C0 28.9787 7.97922 37.0171 17.8229 37.0171H67.178C77.0209 37.0171 85.0009 28.9796 85.0009 19.0004C85.0001 9.02119 77.0209 0.983643 67.178 0.983643Z" fill="#4EB543"/>
<path d="M66.6874 34.3891C75.3285 34.3891 82.3336 27.4993 82.3336 19.0003C82.3336 10.5014 75.3285 3.61157 66.6874 3.61157C58.0463 3.61157 51.0413 10.5014 51.0413 19.0003C51.0413 27.4993 58.0463 34.3891 66.6874 34.3891Z" fill="white"/>
<path d="M66.7315 13.2559H64.6481C64.5256 13.2559 64.449 13.3411 64.449 13.4779V24.324C64.449 24.4608 64.5256 24.5461 64.6481 24.5461H66.7315C66.854 24.5461 66.9306 24.4608 66.9306 24.324V13.4779C66.9306 13.3411 66.854 13.2559 66.7315 13.2559Z" fill="#AAAEBA"/>
<path d="M72.0518 13.4297C72.006 13.3098 71.9444 13.2583 71.822 13.2583H71.817H69.0948H69.0898C68.9674 13.2583 68.8908 13.3436 68.8908 13.4803V24.3214C68.8908 24.4582 68.9674 24.5435 69.0898 24.5435H69.0948H71.1625H71.1733C71.2957 24.5435 71.3723 24.4582 71.3723 24.3214V19.9519C71.3723 19.5914 71.369 19.2698 71.3623 18.965V16.6731L71.4248 16.7558L72.6323 19.4749H72.6331L72.6339 19.4521L73.4642 21.2528C73.709 21.8167 74.2702 23.1531 74.9581 24.3738C75.0205 24.4852 75.0655 24.5451 75.1879 24.5451H77.9143C78.0367 24.5451 78.1133 24.4599 78.1133 24.3231V13.4803C78.1133 13.3436 78.0367 13.2583 77.9143 13.2583H75.8466C75.7242 13.2583 75.6476 13.3436 75.6476 13.4803V14.5389V21.1295L75.5851 21.0468L74.3777 18.3277H74.3768" fill="#AAAEBA"/>
<path d="M63.0451 13.2542H55.6763C55.5538 13.2542 55.4772 13.3394 55.4772 13.4762V24.3223C55.4772 24.4591 55.5538 24.5444 55.6763 24.5444H57.7597C57.8822 24.5444 57.9588 24.4591 57.9588 24.3223V20.9304H61.8651C61.9875 20.9304 62.0641 20.8451 62.0641 20.7084V18.6443C62.0641 18.5076 61.9875 18.4122 61.8651 18.4122L57.9588 18.4223V15.6998L62.5088 15.7141C62.6162 15.7141 62.6928 15.6162 62.7236 15.4972L63.2141 13.5099C63.2441 13.3563 63.1825 13.2542 63.0451 13.2542Z" fill="#AAAEBA"/>
<path d="M26.2841 24.3666C26.2841 24.5034 26.2075 24.5887 26.0851 24.5887H24.0016C23.8792 24.5887 23.8026 24.5034 23.8026 24.3666V13.4496C23.8026 13.3128 23.8792 13.2275 24.0016 13.2275H26.0851C26.2075 13.2275 26.2841 13.3128 26.2841 13.4496V24.3666Z" fill="white"/>
<path d="M30.9282 19.7484C28.8297 18.8772 28.0636 18.0228 28.0636 16.1606C28.0636 13.9226 29.58 13.0725 32.0008 13.0725C32.8893 13.0725 33.7162 13.243 34.4515 13.5166L35.4624 13.8922C35.6007 13.9437 35.6306 14.029 35.6007 14.1657L34.9728 15.665C34.927 15.8018 34.8504 15.8533 34.728 15.8018L33.8244 15.4945C33.2116 15.2894 32.6295 15.1357 32.0016 15.1357C31.1439 15.1357 30.5618 15.546 30.5618 16.1614C30.5618 16.7591 31.0365 17.0326 31.91 17.3914L33.1966 17.9207C35.3259 18.8096 36.092 19.6977 36.092 21.56C36.092 23.901 34.6672 24.941 32.0624 24.941C31.1431 24.941 30.3162 24.8388 29.0446 24.3771L28.0336 24.0183C27.8954 23.9668 27.8654 23.8815 27.8954 23.7448L28.5083 22.0555C28.5541 21.9188 28.6307 21.8673 28.7531 21.9188L29.8257 22.2776C30.7292 22.5849 31.4037 22.6878 32.0624 22.6878C32.8893 22.6878 33.5946 22.4658 33.5946 21.56C33.5946 21.0476 33.0583 20.6542 32.2156 20.2954L30.9282 19.7484Z" fill="white"/>
<path d="M46.607 24.3236C46.607 24.4604 46.5304 24.5456 46.408 24.5456H44.3395C44.2171 24.5456 44.1404 24.4604 44.1404 24.3236V19.9372H40.1575V24.3236C40.1575 24.4604 40.0809 24.5456 39.9585 24.5456H37.875C37.7526 24.5456 37.676 24.4604 37.676 24.3236V13.4825C37.676 13.3458 37.7526 13.2605 37.875 13.2605H39.9585C40.0809 13.2605 40.1575 13.3458 40.1575 13.4825V17.5279H44.1404V13.4825C44.1404 13.3458 44.2171 13.2605 44.3395 13.2605H46.408C46.5304 13.2605 46.607 13.3458 46.607 13.4825V24.3236Z" fill="white"/>
<path d="M22.1655 13.2571H20.0512C19.9288 13.2571 19.8522 13.3255 19.8213 13.4453L18.7963 17.6469C18.7155 18.0065 18.6389 18.3974 18.5673 18.7975L18.0576 21.1663L17.5422 18.9216C17.4564 18.4759 17.3631 18.0394 17.264 17.6443L16.9776 16.4642C16.7069 15.3042 16.4804 14.6069 16.2847 13.4622C16.2698 13.3255 16.1931 13.2571 16.0699 13.2571H15.9999H13.2653H13.1953C13.0729 13.2571 12.9963 13.3255 12.9805 13.4622C12.784 14.6069 12.5583 15.3042 12.2876 16.4642L12.0012 17.6443C11.9021 18.0403 11.8088 18.4767 11.7231 18.9216L11.2076 21.1663L10.698 18.7975C10.6263 18.3974 10.5489 18.0057 10.469 17.6469L9.44387 13.4453C9.41306 13.3255 9.33645 13.2571 9.21404 13.2571H7.09974C6.96151 13.2571 6.8849 13.3592 6.93153 13.496L8.816 21.2828C9.09163 22.4613 9.32146 23.1755 9.52049 24.3371C9.53547 24.4738 9.61209 24.5422 9.73533 24.5422H12.5391C12.54 24.5422 12.5408 24.5414 12.5425 24.5414H12.6757C12.7981 24.5414 12.8747 24.473 12.9055 24.3531L13.9306 20.1516C14.0114 19.792 14.088 19.4011 14.1596 19.001L14.6334 16.801L15.1073 19.001C15.1789 19.4011 15.2563 19.7928 15.3363 20.1516L16.3614 24.3531C16.3922 24.473 16.4688 24.5414 16.5912 24.5414H16.7244L16.7278 24.5422H19.5316C19.654 24.5422 19.7306 24.4738 19.7464 24.3371C19.9454 23.1755 20.1753 22.4621 20.4509 21.2828L22.3354 13.496C22.3795 13.3601 22.3029 13.2571 22.1655 13.2571Z" fill="white"/>
</g>
<defs>
<clipPath id="clip0_538_4361">
<rect width="85" height="36.0326" fill="white" transform="translate(0 0.983643)"/>
</clipPath>
</defs>
</svg>
